<svg width="139" height="40" viewBox="0 0 139 40" fill="none" xmlns="http://www.w3.org/2000/svg">
<rect width="139" height="40" rx="3" fill="url(#paint0_linear_32_127)"/>
<path d="M32 19.53C31.71 19.24 31.23 19.24 30.94 19.53L26.59 23.88L25 22.29C24.71 22 24.23 22 23.94 22.29C23.65 22.58 23.65 23.06 23.94 23.35L25.88 25.29C26.27 25.68 26.9 25.68 27.29 25.29L31.99 20.59C32.29 20.3 32.29 19.82 32 19.53ZM35 12H34V11C34 10.45 33.55 10 33 10C32.45 10 32 10.45 32 11V12H24V11C24 10.45 23.55 10 23 10C22.45 10 22 10.45 22 11V12H21C19.89 12 19.01 12.9 19.01 14L19 28C19 29.1 19.89 30 21 30H35C36.1 30 37 29.1 37 28V14C37 12.9 36.1 12 35 12ZM34 28H22C21.45 28 21 27.55 21 27V17H35V27C35 27.55 34.55 28 34 28Z" fill="#F2F5FA"/>
<path d="M51.2594 26.5H48.7282L53.3368 13.4091H56.2644L60.8794 26.5H58.3482L54.8517 16.0938H54.7495L51.2594 26.5ZM51.3425 21.3672H58.2459V23.272H51.3425V21.3672ZM66.4725 30.3864C65.6415 30.3864 64.9277 30.2734 64.3311 30.0476C63.7346 29.826 63.2551 29.5277 62.8929 29.1527C62.5307 28.7777 62.2793 28.3622 62.1387 27.9062L64.2225 27.4013C64.3162 27.593 64.4526 27.7827 64.6316 27.9702C64.8105 28.1619 65.0513 28.3196 65.3539 28.4432C65.6607 28.571 66.0463 28.6349 66.5108 28.6349C67.1671 28.6349 67.7104 28.4751 68.1408 28.1555C68.5712 27.8402 68.7864 27.3203 68.7864 26.5959V24.7358H68.6713C68.552 24.9744 68.3773 25.2195 68.1472 25.4709C67.9213 25.7223 67.6209 25.9332 67.2459 26.1037C66.8752 26.2741 66.4086 26.3594 65.8461 26.3594C65.0918 26.3594 64.4078 26.1825 63.7942 25.8288C63.1848 25.4709 62.699 24.9382 62.3368 24.2308C61.9789 23.5192 61.7999 22.6286 61.7999 21.5589C61.7999 20.4808 61.9789 19.571 62.3368 18.8295C62.699 18.0838 63.187 17.5192 63.8006 17.1357C64.4142 16.7479 65.0982 16.554 65.8525 16.554C66.4277 16.554 66.9007 16.652 67.2715 16.848C67.6465 17.0398 67.9448 17.272 68.1664 17.5447C68.388 17.8132 68.5563 18.0668 68.6713 18.3054H68.7992V16.6818H71.0811V26.6598C71.0811 27.4993 70.8809 28.1939 70.4803 28.7436C70.0797 29.2933 69.5321 29.7045 68.8375 29.9773C68.1429 30.25 67.3546 30.3864 66.4725 30.3864ZM66.4917 24.544C66.9817 24.544 67.3993 24.4247 67.7445 24.1861C68.0897 23.9474 68.3517 23.6044 68.5307 23.157C68.7097 22.7095 68.7992 22.1726 68.7992 21.5462C68.7992 20.9283 68.7097 20.3871 68.5307 19.9226C68.356 19.4581 68.0961 19.098 67.7509 18.8423C67.41 18.5824 66.9902 18.4524 66.4917 18.4524C65.976 18.4524 65.5456 18.5866 65.2005 18.8551C64.8553 19.1236 64.5953 19.4922 64.4206 19.9609C64.2459 20.4254 64.1586 20.9538 64.1586 21.5462C64.1586 22.147 64.2459 22.6733 64.4206 23.125C64.5996 23.5724 64.8617 23.9219 65.2069 24.1733C65.5563 24.4205 65.9846 24.544 66.4917 24.544ZM77.7992 26.6918C76.8148 26.6918 75.9647 26.4872 75.2488 26.0781C74.5371 25.6648 73.9895 25.081 73.606 24.3267C73.2225 23.5682 73.0307 22.6754 73.0307 21.6484C73.0307 20.6385 73.2225 19.7521 73.606 18.9893C73.9938 18.2223 74.535 17.6257 75.2296 17.1996C75.9242 16.7692 76.7402 16.554 77.6777 16.554C78.2828 16.554 78.8539 16.652 79.3908 16.848C79.932 17.0398 80.4093 17.3381 80.8226 17.7429C81.2402 18.1477 81.5684 18.6634 81.807 19.2898C82.0456 19.9119 82.165 20.6534 82.165 21.5142V22.2237H74.1174V20.6641H79.9469C79.9426 20.2209 79.8468 19.8267 79.6593 19.4815C79.4718 19.1321 79.2097 18.8572 78.873 18.657C78.5407 18.4567 78.1529 18.3565 77.7097 18.3565C77.2367 18.3565 76.8212 18.4716 76.4632 18.7017C76.1053 18.9276 75.8262 19.2259 75.6259 19.5966C75.4299 19.9631 75.3297 20.3658 75.3255 20.8047V22.1662C75.3255 22.7372 75.4299 23.2273 75.6387 23.6364C75.8475 24.0412 76.1394 24.3523 76.5144 24.5696C76.8894 24.7827 77.3283 24.8892 77.8311 24.8892C78.1678 24.8892 78.4725 24.8423 78.7452 24.7486C79.0179 24.6506 79.2544 24.5078 79.4547 24.3203C79.655 24.1328 79.8063 23.9006 79.9086 23.6236L82.0691 23.8665C81.9327 24.4375 81.6728 24.9361 81.2892 25.3622C80.91 25.7841 80.4242 26.1122 79.8319 26.3466C79.2395 26.5767 78.562 26.6918 77.7992 26.6918ZM86.4364 20.7472V26.5H84.1225V16.6818H86.3342V18.3501H86.4492C86.6751 17.8004 87.0352 17.3636 87.5295 17.0398C88.0281 16.7159 88.6438 16.554 89.3768 16.554C90.0543 16.554 90.6445 16.6989 91.1474 16.9886C91.6545 17.2784 92.0465 17.6982 92.3235 18.2479C92.6048 18.7976 92.7433 19.4645 92.739 20.2486V26.5H90.4251V20.6065C90.4251 19.9503 90.2546 19.4368 89.9137 19.0661C89.5771 18.6953 89.1104 18.5099 88.5138 18.5099C88.109 18.5099 87.7489 18.5994 87.4336 18.7784C87.1225 18.9531 86.8775 19.2067 86.6985 19.5391C86.5238 19.8714 86.4364 20.2741 86.4364 20.7472ZM98.7347 26.6726C97.9634 26.6726 97.2731 26.4744 96.6637 26.0781C96.0543 25.6818 95.5728 25.1065 95.2191 24.3523C94.8654 23.598 94.6886 22.6818 94.6886 21.6037C94.6886 20.5128 94.8675 19.5923 95.2255 18.8423C95.5877 18.0881 96.0756 17.5192 96.6893 17.1357C97.3029 16.7479 97.9869 16.554 98.7411 16.554C99.3164 16.554 99.7894 16.652 100.16 16.848C100.531 17.0398 100.825 17.272 101.042 17.5447C101.26 17.8132 101.428 18.0668 101.547 18.3054H101.643V13.4091H103.963V26.5H101.688V24.9531H101.547C101.428 25.1918 101.255 25.4453 101.029 25.7138C100.804 25.978 100.505 26.2038 100.135 26.3913C99.7638 26.5788 99.2972 26.6726 98.7347 26.6726ZM99.3803 24.7741C99.8704 24.7741 100.288 24.642 100.633 24.3778C100.978 24.1094 101.24 23.7365 101.419 23.2592C101.598 22.782 101.688 22.2259 101.688 21.5909C101.688 20.956 101.598 20.4041 101.419 19.9354C101.245 19.4666 100.985 19.1023 100.64 18.8423C100.299 18.5824 99.8789 18.4524 99.3803 18.4524C98.8647 18.4524 98.4343 18.5866 98.0891 18.8551C97.744 19.1236 97.484 19.4943 97.3093 19.9673C97.1346 20.4403 97.0472 20.9815 97.0472 21.5909C97.0472 22.2045 97.1346 22.7521 97.3093 23.2337C97.4883 23.7109 97.7504 24.0881 98.0955 24.3651C98.445 24.6378 98.8732 24.7741 99.3803 24.7741ZM109.254 26.6982C108.632 26.6982 108.072 26.5874 107.573 26.3658C107.079 26.1399 106.687 25.8075 106.397 25.3686C106.112 24.9297 105.969 24.3885 105.969 23.745C105.969 23.1911 106.071 22.733 106.276 22.3707C106.48 22.0085 106.759 21.7188 107.113 21.5014C107.467 21.2841 107.865 21.12 108.308 21.0092C108.756 20.8942 109.218 20.8111 109.695 20.7599C110.271 20.7003 110.737 20.647 111.095 20.6001C111.453 20.549 111.713 20.4723 111.875 20.37C112.041 20.2635 112.124 20.0994 112.124 19.8778V19.8395C112.124 19.358 111.982 18.9851 111.696 18.7209C111.411 18.4567 110.999 18.3246 110.463 18.3246C109.896 18.3246 109.446 18.4482 109.114 18.6953C108.786 18.9425 108.564 19.2344 108.449 19.571L106.289 19.2642C106.459 18.6676 106.74 18.169 107.132 17.7685C107.524 17.3636 108.004 17.0611 108.57 16.8608C109.137 16.6562 109.764 16.554 110.45 16.554C110.923 16.554 111.394 16.6094 111.862 16.7202C112.331 16.831 112.759 17.0142 113.147 17.2699C113.535 17.5213 113.846 17.8643 114.08 18.299C114.319 18.7337 114.438 19.277 114.438 19.929V26.5H112.214V25.1513H112.137C111.997 25.424 111.798 25.6797 111.543 25.9183C111.291 26.1527 110.974 26.3423 110.59 26.4872C110.211 26.6278 109.766 26.6982 109.254 26.6982ZM109.855 24.9979C110.32 24.9979 110.722 24.9062 111.063 24.723C111.404 24.5355 111.666 24.2884 111.85 23.9815C112.037 23.6747 112.131 23.3402 112.131 22.978V21.821C112.058 21.8807 111.935 21.9361 111.76 21.9872C111.59 22.0384 111.398 22.0831 111.185 22.1214C110.972 22.1598 110.761 22.1939 110.552 22.2237C110.343 22.2536 110.162 22.2791 110.009 22.3004C109.664 22.3473 109.355 22.424 109.082 22.5305C108.809 22.6371 108.594 22.7862 108.436 22.978C108.279 23.1655 108.2 23.4084 108.2 23.7067C108.2 24.1328 108.355 24.4545 108.666 24.6719C108.977 24.8892 109.374 24.9979 109.855 24.9979ZM116.765 26.5V16.6818H119.009V18.3182H119.111C119.29 17.7514 119.597 17.3146 120.031 17.0078C120.47 16.6967 120.971 16.5412 121.534 16.5412C121.661 16.5412 121.804 16.5476 121.962 16.5604C122.124 16.5689 122.258 16.5838 122.365 16.6051V18.7337C122.267 18.6996 122.111 18.6697 121.898 18.6442C121.689 18.6143 121.487 18.5994 121.291 18.5994C120.869 18.5994 120.49 18.6911 120.153 18.8743C119.82 19.0533 119.558 19.3026 119.367 19.6222C119.175 19.9418 119.079 20.3104 119.079 20.728V26.5H116.765Z" fill="#F2F5FA"/>
<defs>
<linearGradient id="paint0_linear_32_127" x1="139" y1="0" x2="117.739" y2="73.8817" gradientUnits="userSpaceOnUse">
<stop stop-color="#2098E3"/>
<stop offset="1" stop-color="#0C63DF"/>
</linearGradient>
</defs>
</svg>
