<svg width="36" height="46" viewBox="0 0 36 46" fill="none" xmlns="http://www.w3.org/2000/svg">
<g clip-path="url(#clip0_32_151)">
<path d="M13.3712 22.7228C13.3712 21.6037 13.2508 20.549 13.3936 19.5278C13.7212 17.1918 15.9138 15.5383 18.3024 15.6838C19.4522 15.7658 20.5317 16.2671 21.3357 17.0924C22.1396 17.9178 22.6118 19.0096 22.6624 20.1601C22.6904 20.9994 22.6624 21.8219 22.6624 22.72H34.3731C35.3364 22.72 35.5828 23.0277 35.4568 23.9845C35.0592 27.2545 34.4465 30.4947 33.6226 33.6841C32.7125 37.0665 31.4552 40.3174 29.2822 43.1263C28.4981 44.1418 27.5797 45.0259 26.2719 45.3449C25.1967 45.6078 24.491 45.3448 24.071 44.3349C23.6321 43.2156 23.27 42.0678 22.9873 40.8993C22.4272 38.7731 21.9904 36.6133 21.3771 34.5038C21.0861 33.5373 20.6448 32.6225 20.0694 31.7929C18.9157 30.1143 17.1207 30.1143 15.9026 31.7677C14.9309 33.077 14.4717 34.6157 14.0853 36.1656C13.5616 38.2863 13.1192 40.4237 12.5927 42.5416C12.4208 43.2225 12.1669 43.8801 11.8367 44.4999C11.3942 45.3393 10.7614 45.5715 9.82608 45.3812C8.93116 45.1714 8.11909 44.7 7.49348 44.0271C5.95614 42.508 4.97325 40.628 4.10518 38.692C2.58744 35.3571 1.79777 31.8125 1.17051 28.2286C0.924091 26.8298 0.733678 25.4309 0.518059 24.0321C0.364045 23.0361 0.616068 22.7368 1.61296 22.7368H13.374L13.3712 22.7228Z" fill="#2098E3"/>
<path d="M23.6426 4.93238V3.37687C22.0381 3.23139 20.3607 3.28734 19.1258 1.87451C20.6044 1.05759 22.0689 0.327395 23.749 0.0979853C30.0972 -0.769296 35.3981 4.23576 35.7901 10.2788C36.0155 13.3576 35.9216 16.4515 35.5101 19.5111C35.4205 20.1434 35.1685 20.3504 34.5384 20.3504C31.4264 20.3504 28.3144 20.3504 25.2024 20.3504C24.5247 20.3504 24.2587 20.0706 24.2335 19.402C24.1989 17.7669 23.5244 16.2105 22.3548 15.0663C21.1851 13.9222 19.6133 13.2814 17.9763 13.2814C16.3394 13.2814 14.7676 13.9222 13.5979 15.0663C12.4283 16.2105 11.7538 17.7669 11.7192 19.402C11.694 20.0762 11.4392 20.3504 10.7503 20.3504C7.63829 20.3504 4.52627 20.3504 1.41426 20.3504C0.787006 20.3504 0.537783 20.1266 0.450975 19.4915C-0.0166665 16.0839 -0.198682 12.6568 0.294162 9.24921C1.06423 3.93361 5.73785 -0.299279 11.3355 0.0168587C13.8777 0.10633 16.2843 1.18454 18.0421 3.02157C19.123 4.14064 20.442 4.59106 21.9009 4.79249C22.4581 4.87363 23.0266 4.88762 23.6426 4.93238ZM4.78576 10.5641C5.43542 7.23487 7.16037 5.04988 10.6915 4.64702V3.16145C7.21638 2.86769 2.74999 7.31041 3.37164 10.4354L4.78576 10.5641Z" fill="#0C63DF"/>
</g>
<defs>
<clipPath id="clip0_32_151">
<rect width="35.9076" height="45.4455" fill="white"/>
</clipPath>
</defs>
</svg>
